<svg width="30" height="30" viewBox="0 0 30 30" fill="none" xmlns="http://www.w3.org/2000/svg">
<path d="M22 5H8C7.20435 5 6.44129 5.31607 5.87868 5.87868C5.31607 6.44129 5 7.20435 5 8V9.17C4.99986 9.58294 5.08497 9.99147 5.25 10.37V10.43C5.39128 10.751 5.59139 11.0427 5.84 11.29L12 17.41V24C11.9997 24.1699 12.0426 24.3372 12.1249 24.4859C12.2071 24.6346 12.3259 24.7599 12.47 24.85C12.6291 24.9486 12.8128 25.0006 13 25C13.1565 24.9991 13.3107 24.9614 13.45 24.89L17.45 22.89C17.6149 22.8069 17.7536 22.6798 17.8507 22.5227C17.9478 22.3656 17.9994 22.1847 18 22V17.41L24.12 11.29C24.3686 11.0427 24.5687 10.751 24.71 10.43V10.37C24.8888 9.99443 24.9876 9.58578 25 9.17V8C25 7.20435 24.6839 6.44129 24.1213 5.87868C23.5587 5.31607 22.7956 5 22 5ZM16.29 16.29C16.1973 16.3834 16.124 16.4943 16.0742 16.6161C16.0245 16.7379 15.9992 16.8684 16 17V21.38L14 22.38V17C14.0008 16.8684 13.9755 16.7379 13.9258 16.6161C13.876 16.4943 13.8027 16.3834 13.71 16.29L8.41 11H21.59L16.29 16.29ZM23 9H7V8C7 7.73478 7.10536 7.48043 7.29289 7.29289C7.48043 7.10536 7.73478 7 8 7H22C22.2652 7 22.5196 7.10536 22.7071 7.29289C22.8946 7.48043 23 7.73478 23 8V9Z" fill="#2377DA"/>
</svg>
