<svg width="20" height="23" viewBox="0 0 20 23" fill="none" xmlns="http://www.w3.org/2000/svg">
<path d="M4.41839 2.08325C4.54857 1.92788 4.61265 1.72766 4.59686 1.52557C4.58107 1.32348 4.48668 1.13564 4.33394 1.00237C4.18121 0.869105 3.98231 0.801031 3.77995 0.812766C3.57759 0.824501 3.3879 0.91511 3.25159 1.06514L1.91752 2.59334C1.16104 3.46025 0.733407 4.56551 0.709412 5.71582L0.650556 8.52337C0.648454 8.62507 0.666404 8.72618 0.703381 8.82095C0.740357 8.91571 0.795637 9.00226 0.866063 9.07566C0.936488 9.14906 1.02068 9.20786 1.11383 9.24872C1.20699 9.28959 1.30728 9.3117 1.40898 9.3138C1.51068 9.3159 1.61179 9.29795 1.70655 9.26097C1.80132 9.224 1.88787 9.16872 1.96126 9.09829C2.03466 9.02787 2.09347 8.94367 2.13433 8.85052C2.17519 8.75737 2.1973 8.65708 2.19941 8.55538L2.25723 5.74886C2.2738 4.96177 2.56656 4.20555 3.08432 3.61248L4.41839 2.08325Z" fill="#7F889C"/>
<path fill-rule="evenodd" clip-rule="evenodd" d="M4.21998 7.54241C4.28933 6.43771 4.77707 5.40095 5.58393 4.64321C6.39078 3.88547 7.45608 3.4637 8.56296 3.46378H9.1381V2.68935C9.1381 2.4155 9.24689 2.15286 9.44053 1.95922C9.63417 1.76557 9.89681 1.65678 10.1707 1.65678C10.4445 1.65678 10.7072 1.76557 10.9008 1.95922C11.0944 2.15286 11.2032 2.4155 11.2032 2.68935V3.46378H11.7784C12.8853 3.4637 13.9506 3.88547 14.7574 4.64321C15.5643 5.40095 16.052 6.43771 16.1213 7.54241L16.3495 11.1915C16.4365 12.5828 16.9037 13.9236 17.7001 15.0678C17.8647 15.3043 17.9652 15.5794 17.992 15.8663C18.0188 16.1531 17.9708 16.4421 17.8528 16.705C17.7349 16.9678 17.5509 17.1957 17.3187 17.3664C17.0866 17.5371 16.8143 17.6448 16.5282 17.6791L13.0102 18.1004V19.2104C13.0102 19.9635 12.7111 20.6858 12.1785 21.2183C11.646 21.7508 10.9238 22.05 10.1707 22.05C9.41757 22.05 8.69531 21.7508 8.16279 21.2183C7.63027 20.6858 7.33111 19.9635 7.33111 19.2104V18.1004L3.81315 17.6781C3.52723 17.6437 3.25506 17.536 3.02308 17.3653C2.7911 17.1947 2.6072 16.9669 2.48925 16.7042C2.3713 16.4415 2.3233 16.1528 2.34992 15.866C2.37655 15.5793 2.47689 15.3043 2.64119 15.0678C3.43761 13.9236 3.90477 12.5828 3.99179 11.1915L4.21998 7.54241ZM8.56296 5.01263C7.85005 5.01254 7.1639 5.28416 6.64422 5.77219C6.12454 6.26022 5.81039 6.92796 5.76574 7.63947L5.53857 11.2886C5.4336 12.9623 4.87145 14.5752 3.91331 15.9516C3.9014 15.9687 3.89413 15.9886 3.89218 16.0094C3.89024 16.0301 3.89369 16.051 3.90222 16.0701C3.91074 16.0891 3.92404 16.1056 3.94082 16.1179C3.9576 16.1303 3.97729 16.1381 3.99798 16.1406L7.85668 16.6042C9.39418 16.788 10.9472 16.788 12.4846 16.6042L16.3433 16.1406C16.364 16.1381 16.3837 16.1303 16.4005 16.1179C16.4173 16.1056 16.4306 16.0891 16.4391 16.0701C16.4476 16.051 16.4511 16.0301 16.4491 16.0094C16.4472 15.9886 16.4399 15.9687 16.428 15.9516C15.4702 14.5751 14.9084 12.9622 14.8038 11.2886L14.5756 7.63947C14.5309 6.92796 14.2168 6.26022 13.6971 5.77219C13.1774 5.28416 12.4913 5.01254 11.7784 5.01263H8.56296ZM10.1707 20.5011C9.45819 20.5011 8.87996 19.9229 8.87996 19.2104V18.436H11.4614V19.2104C11.4614 19.9229 10.8831 20.5011 10.1707 20.5011Z" fill="#7F889C"/>
<path d="M15.9976 0.990795C15.8429 1.12583 15.7482 1.31677 15.7342 1.52163C15.7203 1.72649 15.7883 1.92851 15.9232 2.08325L17.2573 3.61145C17.7749 4.20493 18.0673 4.96154 18.0834 5.74886L18.1422 8.55434C18.1465 8.75973 18.2321 8.95503 18.3804 9.09726C18.5286 9.23949 18.7273 9.31701 18.9326 9.31276C19.138 9.30852 19.3333 9.22286 19.4756 9.07462C19.6178 8.92639 19.6953 8.72772 19.6911 8.52233L19.6322 5.71582C19.6082 4.56551 19.1806 3.46025 18.4241 2.59334L17.09 1.06514C16.955 0.910449 16.7641 0.815718 16.5592 0.801776C16.3543 0.787835 16.1523 0.855824 15.9976 0.990795Z" fill="#7F889C"/>
</svg>
