<svg width="20" height="20" viewBox="0 0 20 20" fill="none" xmlns="http://www.w3.org/2000/svg">
<path fill-rule="evenodd" clip-rule="evenodd" d="M4 0C1.79086 0 0 1.79086 0 4V16C0 18.2091 1.79086 20 4 20H16C18.2091 20 20 18.2091 20 16V4C20 1.79086 18.2091 0 16 0H4ZM15.9491 6.81349C16.3983 6.28933 16.3376 5.50021 15.8135 5.05093C15.2893 4.60165 14.5002 4.66235 14.0509 5.18651L8.9294 11.1616L6.88388 9.11612C6.39573 8.62796 5.60427 8.62796 5.11612 9.11612C4.62796 9.60427 4.62796 10.3957 5.11612 10.8839L8.11612 13.8839C8.36232 14.1301 8.70005 14.2624 9.04797 14.2491C9.39589 14.2357 9.72248 14.0778 9.94907 13.8135L15.9491 6.81349Z" fill="#07C932"/>
</svg>
