<svg width="28" height="28" viewBox="0 0 28 28" fill="none" xmlns="http://www.w3.org/2000/svg">
<rect x="1" y="1" width="26" height="26" rx="13" stroke="#2377DA" stroke-width="2"/>
<path d="M7 8.85714C7 8.62981 7.09219 8.4118 7.25628 8.25105C7.42038 8.09031 7.64294 8 7.875 8H20.125C20.3571 8 20.5796 8.09031 20.7437 8.25105C20.9078 8.4118 21 8.62981 21 8.85714C21 9.08447 20.9078 9.30249 20.7437 9.46323C20.5796 9.62398 20.3571 9.71429 20.125 9.71429H7.875C7.64294 9.71429 7.42038 9.62398 7.25628 9.46323C7.09219 9.30249 7 9.08447 7 8.85714ZM7 12.2857C7 12.0584 7.09219 11.8404 7.25628 11.6796C7.42038 11.5189 7.64294 11.4286 7.875 11.4286H20.125C20.3571 11.4286 20.5796 11.5189 20.7437 11.6796C20.9078 11.8404 21 12.0584 21 12.2857C21 12.513 20.9078 12.7311 20.7437 12.8918C20.5796 13.0526 20.3571 13.1429 20.125 13.1429H7.875C7.64294 13.1429 7.42038 13.0526 7.25628 12.8918C7.09219 12.7311 7 12.513 7 12.2857ZM7 15.7143C7 15.487 7.09219 15.2689 7.25628 15.1082C7.42038 14.9474 7.64294 14.8571 7.875 14.8571H20.125C20.3571 14.8571 20.5796 14.9474 20.7437 15.1082C20.9078 15.2689 21 15.487 21 15.7143C21 15.9416 20.9078 16.1596 20.7437 16.3204C20.5796 16.4811 20.3571 16.5714 20.125 16.5714H7.875C7.64294 16.5714 7.42038 16.4811 7.25628 16.3204C7.09219 16.1596 7 15.9416 7 15.7143ZM7 19.1429C7 18.9155 7.09219 18.6975 7.25628 18.5368C7.42038 18.376 7.64294 18.2857 7.875 18.2857H20.125C20.3571 18.2857 20.5796 18.376 20.7437 18.5368C20.9078 18.6975 21 18.9155 21 19.1429C21 19.3702 20.9078 19.5882 20.7437 19.7489C20.5796 19.9097 20.3571 20 20.125 20H7.875C7.64294 20 7.42038 19.9097 7.25628 19.7489C7.09219 19.5882 7 19.3702 7 19.1429Z" fill="#2377DA"/>
</svg>
