<svg width="26" height="26" viewBox="0 0 26 26" fill="none" xmlns="http://www.w3.org/2000/svg">
<path d="M17.967 5.21068L20.7897 8.03335M19.7817 2.72401L12.1457 10.36C11.7511 10.754 11.482 11.256 11.3723 11.8027L10.667 15.3333L14.1977 14.6267C14.7443 14.5173 15.2457 14.2493 15.6403 13.8547L23.2763 6.21868C23.5058 5.98922 23.6878 5.7168 23.812 5.417C23.9362 5.11719 24.0001 4.79586 24.0001 4.47135C24.0001 4.14684 23.9362 3.8255 23.812 3.5257C23.6878 3.22589 23.5058 2.95348 23.2763 2.72401C23.0469 2.49455 22.7745 2.31253 22.4746 2.18835C22.1748 2.06416 21.8535 2.00024 21.529 2.00024C21.2045 2.00024 20.8831 2.06416 20.5833 2.18835C20.2835 2.31253 20.0111 2.49455 19.7817 2.72401Z" stroke="#2377DA" stroke-width="2.5" stroke-linecap="round" stroke-linejoin="round"/>
<path d="M21.3335 18V22C21.3335 22.7073 21.0525 23.3855 20.5524 23.8856C20.0524 24.3857 19.3741 24.6667 18.6668 24.6667H4.00016C3.29292 24.6667 2.61464 24.3857 2.11454 23.8856C1.61445 23.3855 1.3335 22.7073 1.3335 22V7.33335C1.3335 6.62611 1.61445 5.94783 2.11454 5.44774C2.61464 4.94764 3.29292 4.66669 4.00016 4.66669H8.00016" stroke="#2377DA" stroke-width="2.5" stroke-linecap="round" stroke-linejoin="round"/>
</svg>
