<svg width="30" height="30" viewBox="0 0 30 30" fill="none" xmlns="http://www.w3.org/2000/svg">
<path fill-rule="evenodd" clip-rule="evenodd" d="M9 5C6.79086 5 5 6.79086 5 9V21C5 23.2091 6.79086 25 9 25H21C23.2091 25 25 23.2091 25 21V9C25 6.79086 23.2091 5 21 5H9ZM9 17C10.1046 17 11 16.1046 11 15C11 13.8954 10.1046 13 9 13C7.89543 13 7 13.8954 7 15C7 16.1046 7.89543 17 9 17ZM17 15C17 16.1046 16.1046 17 15 17C13.8954 17 13 16.1046 13 15C13 13.8954 13.8954 13 15 13C16.1046 13 17 13.8954 17 15ZM21 17C22.1046 17 23 16.1046 23 15C23 13.8954 22.1046 13 21 13C19.8954 13 19 13.8954 19 15C19 16.1046 19.8954 17 21 17Z" fill="#FFB906"/>
</svg>
