<svg width="26" height="26" viewBox="0 0 26 26" fill="none" xmlns="http://www.w3.org/2000/svg">
<rect x="1.13623" y="1.13647" width="23.7273" height="23.7273" rx="1.5" stroke="#2377DA"/>
<path fill-rule="evenodd" clip-rule="evenodd" d="M17.7695 7.2971C18.3549 7.32256 18.8416 7.81808 18.8565 8.40388L19.0094 14.404C19.0244 14.9898 18.5619 15.4441 17.9764 15.4186C17.391 15.3932 16.9043 14.8976 16.8894 14.3118L16.8017 10.8724L9.06945 18.4669C8.66604 18.8631 7.99487 18.834 7.57034 18.4017C7.14582 17.9695 7.1287 17.2979 7.53211 16.9017L15.2644 9.30719L11.8271 9.15772C11.2417 9.13226 10.755 8.63673 10.74 8.05093C10.7251 7.46513 11.1876 7.01088 11.773 7.03634L17.7695 7.2971Z" fill="#2377DA"/>
</svg>
