<svg width="34" height="34" viewBox="0 0 34 34" fill="none" xmlns="http://www.w3.org/2000/svg">
<path d="M11.4184 8.08326C11.5486 7.92789 11.6126 7.72767 11.5969 7.52558C11.5811 7.3235 11.4867 7.13566 11.3339 7.00239C11.1812 6.86912 10.9823 6.80104 10.78 6.81278C10.5776 6.82451 10.3879 6.91512 10.2516 7.06515L8.91752 8.59335C8.16104 9.46026 7.73341 10.5655 7.70941 11.7158L7.65056 14.5234C7.64631 14.7288 7.72383 14.9274 7.86606 15.0757C8.00829 15.2239 8.20359 15.3096 8.40898 15.3138C8.61437 15.3181 8.81303 15.2405 8.96127 15.0983C9.1095 14.9561 9.19516 14.7608 9.19941 14.5554L9.25723 11.7489C9.2738 10.9618 9.56656 10.2056 10.0843 9.6125L11.4184 8.08326Z" fill="#FFB906"/>
<path fill-rule="evenodd" clip-rule="evenodd" d="M11.22 13.5424C11.2893 12.4377 11.7771 11.401 12.5839 10.6432C13.3908 9.88549 14.4561 9.46372 15.563 9.46379H16.1381V8.68937C16.1381 8.41551 16.2469 8.15288 16.4405 7.95923C16.6342 7.76559 16.8968 7.6568 17.1707 7.6568C17.4445 7.6568 17.7072 7.76559 17.9008 7.95923C18.0944 8.15288 18.2032 8.41551 18.2032 8.68937V9.46379H18.7784C19.8853 9.46372 20.9506 9.88549 21.7574 10.6432C22.5643 11.401 23.052 12.4377 23.1214 13.5424L23.3496 17.1915C23.4365 18.5829 23.9037 19.9237 24.7002 21.0678C24.8647 21.3043 24.9653 21.5794 24.992 21.8663C25.0188 22.1532 24.9708 22.4421 24.8529 22.705C24.7349 22.9679 24.5509 23.1957 24.3188 23.3664C24.0866 23.5371 23.8143 23.6449 23.5282 23.6791L20.0102 24.1004V25.2104C20.0102 25.9635 19.7111 26.6858 19.1785 27.2183C18.646 27.7508 17.9238 28.05 17.1707 28.05C16.4176 28.05 15.6953 27.7508 15.1628 27.2183C14.6303 26.6858 14.3311 25.9635 14.3311 25.2104V24.1004L10.8132 23.6781C10.5272 23.6437 10.2551 23.536 10.0231 23.3654C9.7911 23.1947 9.6072 22.967 9.48925 22.7043C9.3713 22.4415 9.3233 22.1528 9.34992 21.866C9.37655 21.5793 9.47689 21.3043 9.64119 21.0678C10.4376 19.9236 10.9048 18.5829 10.9918 17.1915L11.22 13.5424ZM15.88 25.2104C15.88 25.5528 16.0159 25.8811 16.258 26.1231C16.5001 26.3652 16.8284 26.5012 17.1707 26.5012C17.513 26.5012 17.8413 26.3652 18.0833 26.1231C18.3254 25.8811 18.4614 25.5528 18.4614 25.2104V24.436H15.88V25.2104Z" fill="#FFB906"/>
<path d="M22.9976 6.99081C22.8429 7.12584 22.7482 7.31678 22.7342 7.52165C22.7203 7.72651 22.7883 7.92852 22.9232 8.08327L24.2573 9.61147C24.7749 10.2049 25.0673 10.9616 25.0834 11.7489L25.1422 14.5544C25.1443 14.6561 25.1664 14.7564 25.2073 14.8495C25.2482 14.9427 25.307 15.0269 25.3804 15.0973C25.4538 15.1677 25.5403 15.223 25.6351 15.26C25.7298 15.2969 25.8309 15.3149 25.9326 15.3128C26.0343 15.3107 26.1346 15.2886 26.2278 15.2477C26.3209 15.2069 26.4051 15.148 26.4756 15.0746C26.546 15.0012 26.6013 14.9147 26.6382 14.8199C26.6752 14.7252 26.6932 14.6241 26.6911 14.5224L26.6322 11.7158C26.6082 10.5655 26.1806 9.46026 25.4241 8.59335L24.09 7.06515C23.955 6.91046 23.7641 6.81573 23.5592 6.80179C23.3543 6.78785 23.1523 6.85584 22.9976 6.99081Z" fill="#FFB906"/>
</svg>
