<svg width="21" height="20" viewBox="0 0 21 20" fill="none" xmlns="http://www.w3.org/2000/svg">
<path d="M12.3 19.7C11.6 19.9 10.8 20 10 20C4.5 20 0 15.5 0 10C0 4.5 4.5 0 10 0C11.3 0 12.6 0.3 13.8 0.7L12.2 2.3C11.5 2.1 10.8 2 10 2C5.6 2 2 5.6 2 10C2 14.4 5.6 18 10 18C10.4 18 10.9 18 11.3 17.9C11.5 18.6 11.9 19.2 12.3 19.7ZM6.6 8.8C6.2134 8.4134 5.5866 8.4134 5.2 8.8C4.8134 9.1866 4.8134 9.8134 5.2 10.2L8.29289 13.2929C8.68342 13.6834 9.31658 13.6834 9.70711 13.2929L18.3 4.7C18.6866 4.3134 18.6866 3.6866 18.3 3.3C17.9134 2.9134 17.2866 2.9134 16.9 3.3L9.70711 10.4929C9.31658 10.8834 8.68342 10.8834 8.29289 10.4929L6.6 8.8ZM17 12C16.4477 12 16 12.4477 16 13V14C16 14.5523 15.5523 15 15 15H14C13.4477 15 13 15.4477 13 16C13 16.5523 13.4477 17 14 17H15C15.5523 17 16 17.4477 16 18V19C16 19.5523 16.4477 20 17 20C17.5523 20 18 19.5523 18 19V18C18 17.4477 18.4477 17 19 17H20C20.5523 17 21 16.5523 21 16C21 15.4477 20.5523 15 20 15H19C18.4477 15 18 14.5523 18 14V13C18 12.4477 17.5523 12 17 12Z" fill="#2377DA"/>
</svg>
