<svg width="30" height="30" viewBox="0 0 30 30" fill="none" xmlns="http://www.w3.org/2000/svg">
<path fill-rule="evenodd" clip-rule="evenodd" d="M13.9268 7L14 7V9C12.0862 9 10.7514 9.00213 9.74431 9.13758C8.76596 9.26916 8.24809 9.50982 7.87942 9.87881C7.51044 10.2475 7.26917 10.7659 7.13759 11.7443C7.00214 12.7514 7.00001 14.0862 7.00001 16V22C7.00001 22.4998 7.00214 22.7738 7.02771 22.9639C7.02805 22.9664 7.02839 22.9689 7.02872 22.9713C7.03113 22.9716 7.03358 22.972 7.03609 22.9723C7.22617 22.9979 7.50022 23 8.00001 23H14C15.9138 23 17.2486 22.9979 18.2557 22.8624C19.2341 22.7308 19.7519 22.4902 20.1206 22.1212C20.4896 21.7525 20.7309 21.2341 20.8624 20.2557C20.9979 19.2486 21 17.9138 21 16H23V16.0732C23 17.8965 23.0001 19.3663 22.8446 20.5223C22.6832 21.7223 22.3379 22.7328 21.5351 23.5351C20.7328 24.3379 19.7223 24.6832 18.5223 24.8446C17.3663 25 15.8965 25 14.0732 25H8.00001C7.98184 25 7.96369 25 7.94556 25C7.52144 25.0001 7.10933 25.0002 6.76944 24.9544C6.38606 24.9029 5.94903 24.7772 5.58591 24.4141C5.22278 24.051 5.09714 23.614 5.04557 23.2306C4.99984 22.8907 4.99992 22.4786 5.00001 22.0545C5.00001 22.0363 5.00001 22.0182 5.00001 22L5.00001 15.9268C4.99999 14.1035 4.99996 12.6337 5.15544 11.4777C5.31683 10.2777 5.66211 9.26717 6.46491 8.46489C7.26719 7.66209 8.27772 7.31682 9.47772 7.15542C10.6337 6.99995 12.1035 6.99997 13.9268 7Z" fill="#2377DA"/>
<path fill-rule="evenodd" clip-rule="evenodd" d="M21 5C21.5523 5 22 5.44772 22 6V8H24C24.5523 8 25 8.44772 25 9C25 9.55228 24.5523 10 24 10H22V12C22 12.5523 21.5523 13 21 13C20.4477 13 20 12.5523 20 12V10H18C17.4477 10 17 9.55228 17 9C17 8.44772 17.4477 8 18 8H20V6C20 5.44772 20.4477 5 21 5ZM10 14C10 13.4477 10.4477 13 11 13H17C17.5523 13 18 13.4477 18 14C18 14.5523 17.5523 15 17 15H11C10.4477 15 10 14.5523 10 14ZM10 18C10 17.4477 10.4477 17 11 17H14C14.5523 17 15 17.4477 15 18C15 18.5523 14.5523 19 14 19H11C10.4477 19 10 18.5523 10 18Z" fill="#2377DA"/>
</svg>
