<svg width="38" height="38" viewBox="0 0 38 38" fill="none" xmlns="http://www.w3.org/2000/svg">
<g clip-path="url(#clip0_318_315)">
<path fill-rule="evenodd" clip-rule="evenodd" d="M19.0503 8.59885C18.2384 8.59885 17.5803 9.25701 17.5803 10.0689C17.5803 10.8808 18.2384 11.539 19.0503 11.539C19.8622 11.539 20.5204 10.8808 20.5204 10.0689C20.5204 9.25701 19.8622 8.59885 19.0503 8.59885ZM15.9692 10.0689C15.9692 8.36727 17.3487 6.98782 19.0503 6.98782C20.752 6.98782 22.1314 8.36727 22.1314 10.0689C22.1314 11.7705 20.752 13.15 19.0503 13.15C17.3487 13.15 15.9692 11.7705 15.9692 10.0689Z" fill="white"/>
<path fill-rule="evenodd" clip-rule="evenodd" d="M13.8495 17.4213C13.5064 17.8897 13.3915 18.242 13.3915 18.4462C13.3915 18.4479 13.3916 18.4492 13.3916 18.4501C13.3948 18.4556 13.4114 18.4815 13.4634 18.5221C13.581 18.6139 13.7974 18.7178 14.1318 18.81C14.7677 18.9854 15.5878 19.0557 16.2974 19.0876C16.3229 19.0727 16.3676 19.0438 16.4335 18.9907C16.5955 18.8599 16.7931 18.6568 17.01 18.3999C17.44 17.8904 17.8657 17.2651 18.1264 16.8499L18.1442 16.8216L18.1642 16.7949C18.6072 16.2042 19.5134 16.2042 19.9565 16.7949L19.9699 16.8128L19.9823 16.8314C20.2402 17.2183 20.6898 17.8008 21.1516 18.2861C21.3829 18.5291 21.6002 18.7296 21.7841 18.8666C21.9331 18.9776 22.0085 19.0076 22.0198 19.0137C22.5538 19.0379 23.4267 18.9138 24.167 18.6531C24.5447 18.52 24.8325 18.3703 25.01 18.2287C25.1051 18.1529 25.14 18.1038 25.1515 18.0833C25.143 17.9118 25.0291 17.6043 24.6652 17.1831C24.3036 16.7646 23.772 16.3242 23.1317 15.9208C21.8345 15.1035 20.2569 14.5395 19.0503 14.5395C17.8805 14.5395 16.4323 15.1602 15.2454 16.0539C14.6623 16.493 14.1791 16.9712 13.8495 17.4213ZM25.1565 18.0723C25.1566 18.0723 25.1562 18.0737 25.1549 18.0765C25.1557 18.0737 25.1563 18.0723 25.1565 18.0723ZM14.2764 14.767C15.6168 13.7576 17.4007 12.9285 19.0503 12.9285C20.6629 12.9285 22.539 13.6432 23.9905 14.5578C24.7247 15.0203 25.3912 15.5591 25.8843 16.1299C26.3599 16.6804 26.763 17.3645 26.763 18.1039C26.763 18.737 26.3795 19.1971 26.0146 19.4881C25.6414 19.7858 25.1678 20.0086 24.7022 20.1726C23.7749 20.4992 22.6598 20.6675 21.8805 20.6196L21.8708 20.619L21.8612 20.6182C21.4473 20.5827 21.0765 20.3484 20.8216 20.1585C20.5367 19.9463 20.2492 19.6748 19.9846 19.3967C19.6605 19.0561 19.3449 18.6784 19.0787 18.3314C18.8329 18.6877 18.5418 19.0828 18.2411 19.439C17.9947 19.7309 17.7216 20.0212 17.4456 20.2441C17.2121 20.4326 16.808 20.7158 16.3274 20.7013L16.3231 20.7012L16.3187 20.701C15.5775 20.6705 14.5566 20.5983 13.7035 20.3631C13.2802 20.2463 12.8308 20.072 12.472 19.7919C12.0918 19.4951 11.7805 19.0471 11.7805 18.4462C11.7805 17.7442 12.1213 17.0544 12.5497 16.4694C12.9916 15.866 13.5959 15.2794 14.2764 14.767Z" fill="white"/>
<path fill-rule="evenodd" clip-rule="evenodd" d="M13.0492 21.487C11.0029 21.487 9.56537 22.8845 9.56537 24.3869C9.56537 25.887 11.0205 27.2867 13.0492 27.2867C13.4487 27.2867 13.9834 27.1223 14.6154 26.797C15.2323 26.4795 15.8695 26.0469 16.4539 25.5998C17.0273 25.1611 17.5343 24.7205 17.9018 24.3855C17.5361 24.0509 17.0318 23.6112 16.4608 23.1735C15.8779 22.7266 15.2417 22.2943 14.6243 21.9769C13.9924 21.6521 13.4547 21.487 13.0492 21.487ZM19.0704 24.3869C19.6446 23.822 19.6445 23.8219 19.6444 23.8218L19.6433 23.8206L19.6405 23.8178L19.6312 23.8084C19.6232 23.8003 19.6117 23.7889 19.597 23.7742C19.5676 23.745 19.525 23.7029 19.4704 23.6499C19.3612 23.5438 19.2039 23.3937 19.0081 23.2142C18.6175 22.856 18.0691 22.3765 17.441 21.8949C16.8156 21.4155 16.095 20.9215 15.3607 20.5441C14.6409 20.1741 13.8319 19.876 13.0492 19.876C10.343 19.876 7.95435 21.7812 7.95435 24.3869C7.95435 26.9948 10.3657 28.8977 13.0492 28.8977C13.8277 28.8977 14.6347 28.599 15.3526 28.2295C16.0855 27.8523 16.8065 27.3585 17.4328 26.8793C18.0619 26.398 18.612 25.9187 19.0041 25.5607C19.2006 25.3812 19.3585 25.2312 19.4681 25.1253C19.523 25.0723 19.5658 25.0302 19.5953 25.001C19.6101 24.9864 19.6216 24.9749 19.6296 24.9669L19.639 24.9575L19.6417 24.9547L19.6429 24.9536C19.643 24.9534 19.6431 24.9533 19.0704 24.3869ZM19.0704 24.3869L19.6431 24.9533L20.2019 24.3884L19.6446 23.822L19.0704 24.3869Z" fill="white"/>
<path fill-rule="evenodd" clip-rule="evenodd" d="M22.6995 20.5441C23.4194 20.1741 24.2284 19.876 25.011 19.876C27.7173 19.876 30.1059 21.7812 30.1059 24.3869C30.1059 26.9948 27.6945 28.8977 25.011 28.8977C24.2325 28.8977 23.4255 28.599 22.7076 28.2295C21.9747 27.8523 21.2538 27.3585 20.6274 26.8793C19.9984 26.398 19.4483 25.9187 19.0562 25.5607C18.8597 25.3812 18.7017 25.2312 18.5921 25.1253C18.5373 25.0723 18.4945 25.0302 18.4649 25.001C18.4502 24.9864 18.4387 24.9749 18.4307 24.9669L18.4213 24.9575L18.4174 24.9536C18.4173 24.9534 18.4172 24.9533 18.9898 24.3869C18.4156 23.822 18.4157 23.8219 18.4158 23.8218L18.417 23.8206L18.4197 23.8178L18.4291 23.8084C18.4371 23.8003 18.4485 23.7889 18.4632 23.7742C18.4927 23.745 18.5353 23.7029 18.5899 23.6499C18.699 23.5438 18.8563 23.3937 19.0521 23.2142C19.4428 22.856 19.9912 22.3765 20.6193 21.8949C21.2446 21.4155 21.9652 20.9215 22.6995 20.5441ZM18.9898 24.3869L18.4156 23.822L17.8584 24.3884L18.4172 24.9533L18.9898 24.3869ZM20.1584 24.3855C20.5259 24.7205 21.033 25.1611 21.6064 25.5998C22.1908 26.0469 22.8279 26.4795 23.4449 26.797C24.0768 27.1223 24.6115 27.2867 25.011 27.2867C27.0398 27.2867 28.4949 25.887 28.4949 24.3869C28.4949 22.8845 27.0573 21.487 25.011 21.487C24.6056 21.487 24.0679 21.6521 23.436 21.9769C22.8185 22.2943 22.1823 22.7266 21.5994 23.1735C21.0284 23.6112 20.5241 24.0509 20.1584 24.3855Z" fill="white"/>
<path fill-rule="evenodd" clip-rule="evenodd" d="M18.9899 1.61102C9.39183 1.61102 1.61102 9.39183 1.61102 18.9899C1.61102 28.588 9.39183 36.3688 18.9899 36.3688C28.588 36.3688 36.3688 28.588 36.3688 18.9899C36.3688 9.39183 28.588 1.61102 18.9899 1.61102ZM0 18.9899C0 8.50208 8.50208 0 18.9899 0C29.4778 0 37.9799 8.50208 37.9799 18.9899C37.9799 29.4778 29.4778 37.9799 18.9899 37.9799C8.50208 37.9799 0 29.4778 0 18.9899Z" fill="white"/>
</g>
<defs>
<clipPath id="clip0_318_315">
<rect width="38" height="38" fill="white"/>
</clipPath>
</defs>
</svg>
