<svg width="30" height="30" viewBox="0 0 30 30" fill="none" xmlns="http://www.w3.org/2000/svg">
<path d="M24.0002 24.0002L19.6572 19.6572M19.6572 19.6572C20.4001 18.9143 20.9894 18.0324 21.3914 17.0618C21.7935 16.0911 22.0004 15.0508 22.0004 14.0002C22.0004 12.9496 21.7935 11.9093 21.3914 10.9387C20.9894 9.96803 20.4001 9.08609 19.6572 8.34321C18.9143 7.60032 18.0324 7.01103 17.0618 6.60898C16.0911 6.20693 15.0508 6 14.0002 6C12.9496 6 11.9093 6.20693 10.9387 6.60898C9.96803 7.01103 9.08609 7.60032 8.34321 8.34321C6.84288 9.84354 6 11.8784 6 14.0002C6 16.122 6.84288 18.1569 8.34321 19.6572C9.84354 21.1575 11.8784 22.0004 14.0002 22.0004C16.122 22.0004 18.1569 21.1575 19.6572 19.6572Z" stroke="#2377DA" stroke-width="2" stroke-linecap="round" stroke-linejoin="round"/>
</svg>
